<svg xmlns="http://www.w3.org/2000/svg" width="128" height="128"><path fill="#88b04b" d="M0 0h128v128H0z"/><path d="M68.167 19.833h45m-45 12h45m-45 12.334h45" fill="#fff" stroke="#fff" stroke-width="4"/><path stroke="#fff" stroke-width="4" d="M68.166 79.166h45m-45 12h45m-45 12.333h45"/><path stroke="#fff" stroke-width="4" d="M15.167 10.833H55.5v44H15.167zm0 58.667H55.5v44H15.167z" fill="none"/><path d="M41.332 35.374l5.035 2.395c2.193 1.038 3.986 3.604 3.986 5.686v5.605h-30.04v-5.605c0-2.1 1.792-4.648 3.984-5.686l4.88-2.314 3.386 7.054 1.734-4.694c.338.06.68.148 1.034.148s.692-.088 1.035-.148l1.646 4.466 3.32-6.907zm-5.995 0c4.284 0 7.76-5.33 7.76-10.22s-3.476-7.487-7.76-7.487-7.76 2.594-7.76 7.487 3.472 10.22 7.76 10.22zm6 57.803l5.035 2.395c2.193 1.038 3.986 3.604 3.986 5.687v5.604h-30.04v-5.604c0-2.1 1.792-4.648 3.984-5.687l4.88-2.314 3.386 7.054L34.3 95.62c.338.06.68.148 1.034.148s.692-.088 1.035-.148l1.646 4.467 3.32-6.9zm-5.996 0c4.284 0 7.76-5.33 7.76-10.22s-3.476-7.486-7.76-7.486-7.76 2.594-7.76 7.486 3.472 10.22 7.76 10.22z" fill="#fff"/></svg>