<svg xmlns="http://www.w3.org/2000/svg" height="512" viewBox="0 0 64 64" width="512"><path d="M62 16h-6a8 8 0 0 0-8-8H21a8 8 0 0 0-8 8v4h4l-7 10-7-10h4v-4C7 8.27 13.27 2 21 2h27c3.86 0 7.36 1.57 9.9 4.1C60.43 8.64 62 12.14 62 16zm-8 18l7 10h-4v4c0 7.73-6.27 14-14 14H16c-3.86 0-7.36-1.57-9.9-4.1C3.57 55.36 2 51.86 2 48h6a8 8 0 0 0 8 8h27a8 8 0 0 0 8-8v-4h-4z" fill="#fcd770"/><path d="M25 47l4 5h-9v-8a11.98 11.98 0 0 1 3.99-8.94L23 44l3 1zm19-3v8h-9l4-5-1-2 3-1-1-8.94A11.98 11.98 0 0 1 44 44z" fill="#e6e9ed"/><g fill="#ccd1d9"><path d="M27.02 33.08L32 52h-3l-4-5 1-2-3-1 1-8.94c.9-.8 1.92-1.48 3.03-1.98z"/><path d="M32 52l4.98-18.92c1.1.5 2.13 1.17 3.03 1.98L41 44l-3 1 1 2-4 5z"/></g><path d="M32 32a11.88 11.88 0 0 1 4.98 1.08L32 52l-4.98-18.92A11.88 11.88 0 0 1 32 32z" fill="#ff826e"/><circle cx="32" cy="23" fill="#f0d0b4" r="9"/><path d="M45.08 45H50v3a7.01 7.01 0 0 1-7 7H16a7.01 7.01 0 0 1-7-7v-1H1v1a15.02 15.02 0 0 0 15 15h27a15.02 15.02 0 0 0 15-15v-3h4.92L54 32.256zM56 43v5a13.02 13.02 0 0 1-13 13H16A13.02 13.02 0 0 1 3.038 49h4.018c.5 4.494 4.32 8 8.944 8h27c4.963 0 9-4.038 9-9v-5h-3.08L54 35.744 59.08 43zM48 1H21A15.02 15.02 0 0 0 6 16v3H1.08L10 31.744 18.92 19H14v-3a7.01 7.01 0 0 1 7-7h27a7.01 7.01 0 0 1 7 7v1h8v-1A15.02 15.02 0 0 0 48 1zm8.944 14c-.5-4.494-4.32-8-8.944-8H21c-4.963 0-9 4.038-9 9v5h3.08L10 28.256 4.92 21H8v-5A13.02 13.02 0 0 1 21 3h27a13.02 13.02 0 0 1 12.962 12zM41 11h2v2h-2zm12 6v-1c0-2.757-2.243-5-5-5h-3v2h3c1.654 0 3 1.346 3 3v1zM19 44v9h26v-9c0-5.54-3.5-10.27-8.384-12.138C39.8 30.2 42 26.85 42 23c0-5.514-4.486-10-10-10s-10 4.486-10 10c0 3.85 2.2 7.2 5.384 8.862C22.5 33.73 19 38.46 19 44zm2 0a10.91 10.91 0 0 1 1.631-5.734l-.714 6.427 2.673.9-.77 1.54L26.92 51H21zm18.917-.693l-3.327 1.1 1.23 2.46L34.52 51h-1.222l4.326-16.437c.504.302.987.635 1.435 1zm-15.834 0l.86-7.734c.448-.376.93-.7 1.435-1L30.703 51H29.48l-3.3-4.125 1.23-2.46zM43 51h-5.92l3.1-3.875-.77-1.54 2.673-.9-.714-6.427A10.91 10.91 0 0 1 43 44zM24 23a8.01 8.01 0 0 1 8-8 8.01 8.01 0 0 1 8 8 8.01 8.01 0 0 1-8 8 8.01 8.01 0 0 1-8-8zm11.786 10.685L32 48.072l-3.786-14.386C29.397 33.25 30.668 33 32 33s2.603.25 3.786.685z"/></svg>