<svg xmlns="http://www.w3.org/2000/svg" viewBox="0 0 512.003 512.003"><path d="M102.298 289.342H59.515c-3.793 0-7.493-1.603-11.06-.85C24.372 293.584 6.3 314.96 6.3 340.558v51.455a4.15 4.15 0 0 0 4.151 4.151h140.913a4.15 4.15 0 0 0 4.151-4.151v-51.455c0-25.598-18.074-46.975-42.156-52.065-3.568-.754-7.268.85-11.06.85z" fill="#ed5575"/><path d="M153.545 215.592v-39.66c0-40.117-32.52-72.64-72.64-72.64s-72.64 32.52-72.64 72.64v39.66c0 10.68-3.437 23.72-7.78 31.962-1.46 2.77.536 6.09 3.666 6.09H157.66c3.13 0 5.125-3.322 3.666-6.09-4.343-8.24-7.78-21.283-7.78-31.962z" fill="#444966"/><path d="M134.77 195.807v11.315c0 29.745-24.118 53.855-53.863 53.855s-53.863-24.1-53.863-53.855v-35.06c0-1.89.11-3.766.318-5.603h6.882a17.49 17.49 0 0 1 16.399 11.424c1.992 5.386 5.557 9.866 10.052 13.005a27.45 27.45 0 0 0 15.686 4.921l58.39-.001z" fill="#fcd0ae"/><path d="M113.358 288.5c-3.57-.755-7.266-1.158-11.06-1.158H59.515c-3.793 0-7.49.404-11.06 1.158 2.56 19.414 15.177 35.65 32.45 43.313 17.274-7.663 29.892-23.9 32.45-43.313z" fill="#ebeef2"/><circle cx="485.201" cy="220.721" r="26.802" fill="#2e344c"/><path d="M431.336 260.98c-29.747 0-53.862-24.115-53.862-53.862v-35.056c0-27.578 22.356-49.934 49.934-49.934h7.857c27.578 0 49.934 22.356 49.934 49.934v35.056c-.001 29.747-24.116 53.862-53.863 53.862z" fill="#fcd0ae"/><path d="M452.727 287.342h-42.783c-29.4 0-53.216 23.825-53.216 53.216v51.455a4.15 4.15 0 0 0 4.151 4.151h140.913a4.15 4.15 0 0 0 4.151-4.151v-51.455c0-29.4-23.825-53.216-53.216-53.216z" fill="#5c9cee"/><path d="M485.2 172.065v35.216c-77.043-6.795-83.55-48.35-83.55-48.35v26.577h-24.175v-13.444c0-27.58 22.354-49.934 49.934-49.934h7.857c27.58 0 49.935 22.355 49.935 49.935z" fill="#444966"/><path d="M463.787 288.5c-3.57-.755-7.266-1.158-11.06-1.158h-42.784c-3.793 0-7.49.404-11.06 1.158 2.56 19.414 15.177 35.65 32.45 43.313 17.274-7.663 29.892-23.9 32.45-43.313z" fill="#ebeef2"/><path d="M358.186 358.237c-25.04-91.374-24.486-97.66-6.9-182.944 1.57-7.02 2.403-14.318 2.403-21.81 0-54.99-44.58-99.57-99.57-99.57s-99.57 44.58-99.57 99.57c0 7.493.834 14.79 2.403 21.81 17.586 85.282 18.14 91.57-6.9 182.944-2.867 9.735-4.413 20.035-4.413 30.7 0 59.912 48.568 45.445 108.48 45.445s108.48 14.466 108.48-45.445c0-10.664-1.546-20.964-4.413-30.7z" fill="#fcab29"/><path d="M358.186 358.237c-25.04-91.374-24.486-97.66-6.9-182.943 1.57-7.02 2.403-14.318 2.403-21.81 0-54.99-44.58-99.57-99.57-99.57-2.573 0-5.123.098-7.647.29 44.646 3.905 79.817 46.862 79.817 99.28a114.48 114.48 0 0 1-2.086 21.811c-15.27 85.283-15.75 91.57 5.992 182.943 2.5 9.735 3.832 20.036 3.832 30.7 0 36.15-15.357 45.216-38.963 46.725 39.614 1.366 67.536-1.302 67.536-46.725-.001-10.664-1.547-20.964-4.414-30.7z" fill="#dd8d19"/><path d="M285.223 301.86h-62.208c-11.892 0-23.157.682-33.223 5.475-26.108 12.43-44.153 39.058-44.153 69.9v70.475a10.38 10.38 0 0 0 10.378 10.378H352.22a10.38 10.38 0 0 0 10.378-10.378v-70.474c0-31.054-18.294-57.835-44.692-70.155-9.93-4.633-21.005-5.22-32.684-5.22z" fill="#656d88"/><path d="M285.223 301.86h-15.7c16.2 0 31.092 4.32 42.836 14.89 15.752 14.178 25.843 36.004 25.843 60.485v70.475c0 5.73-4.124 10.378-9.21 10.378h23.22a10.38 10.38 0 0 0 10.378-10.378v-70.475c0-31.054-18.294-57.835-44.692-70.155-9.93-4.633-21.006-5.22-32.685-5.22z" fill="#444966"/><path d="M326.57 204.894c-4.05 36.414-34.945 64.74-72.45 64.74-40.264 0-72.91-32.648-72.91-72.91v-47.45c0-17.635 6.756-33.697 17.824-45.73 16.617 38.374 59.892 83.8 127.537 101.35z" fill="#fcd0ae"/><path d="M299.474 195.908c.143 2.85.035 5.835-.386 8.986-3.06 33.93-25.025 60.826-52.613 64.34 2.513.26 5.062.4 7.644.4 37.505 0 68.4-28.325 72.45-64.74-9.523-2.47-18.545-5.51-27.095-8.986z" fill="#e59f6a"/><path d="M254.12 423.08l63.587-116.068c-9.88-4.578-20.88-7.15-32.484-7.15h-62.207c-11.605 0-22.604 2.572-32.483 7.15L254.12 423.08z" fill="#ebeef2"/><path d="M265.42 328.344c11.33-4.5 19.343-15.552 19.343-28.484h-61.29c0 12.93 8.014 23.984 19.343 28.484l-10.124 55.625 21.426 39.1 21.426-39.1-10.125-55.625z" fill="#ed5575"/></svg>