<svg xmlns="http://www.w3.org/2000/svg" viewBox="0 0 512.001 512.001"><path d="M278.665 418.858l10.764-28.666-33.022-24.3-33.13 24.383 11.974 28.582z" fill="#ef4c35"/><path d="M235.25 418.858l.63 1.508L221.1 512h71.832l-14.798-91.722.53-1.42z" fill="#dd3e2b"/><path d="M230.312 512l14.96-92.747-14.457-34.523-46.386-44.103 9.08 66.13L222.988 512z" fill="#d2d2d7"/><path d="M291.18 512l29.817-106.458 9.086-66.145-48.265 45.2-13.045 34.744L283.72 512z" fill="#e4e4ea"/><path d="M291.867 403.172c9.546 7.025 15.32.77 17.475-2.483l30.413-62.51-39.25-25.908-9.265 16.683-34.522 35.836-33.594-32.724-6.51-22.63-43.55 28.74 29.696 61.038c.82 1.624 6.844 12.407 18.33 3.966l35.32-25.993 33.662 24.77c.534.325 1.124.717 1.798 1.214z" fill="#f5f5f7"/><path d="M261.415 0h-9.21C189.28 0 138.1 51.196 138.1 114.118v53.533s25.98-2.577 29.176-15.176l-.017-.013c1.097-1.193 2.014-2.552 2.66-4.072 14.737-.444 83.578-.98 122.9-48.46 4.692 13.725 20.562 39.713 51.1 47.897.63 1.656 1.565 3.15 2.71 4.444l-.253.204c3.194 12.6 29.176 15.176 29.176 15.176v-53.534C375.532 51.196 324.338 0 261.415 0zm86.037 144.28l1.1-.796h.156l-1.8 1.326.535-.53zm-.56.343l.123-.388.38-.75h.155l-.453.943-.206.196zm-3.027 2.34l-.042-.06 2.814-2.036-.664.642-2.057 1.52-.05-.067zm2.323-.66l-.88 1.823-.14-.062c-.02-.01-.043-.023-.06-.032l1.436-2.855.038-.036-.394 1.162z" fill="#694b4b"/><path d="M158.204 143.582v-29.465C158.204 53.02 206.467 2.995 266.867.14a113.48 113.48 0 0 0-5.452-.14h-9.21C189.28-.001 138.1 51.195 138.1 114.117v53.533s11.48-1.145 20.115-5.607v-18.46z" fill="#563b3b"/><path d="M361.826 151.107a14.37 14.37 0 0 0-12.793 2.14 14.38 14.38 0 0 0-5.852 11.577v40.943c0 4.567 2.172 8.864 5.852 11.568 2.5 1.84 5.49 2.798 8.517 2.798a14.22 14.22 0 0 0 4.272-.652c2.755-.856 5.46-2.095 8.04-3.68 1.518-.93 2.85-2.14 3.93-3.556 1.584-.818 3.003-1.922 4.186-3.257 5.805-6.565 9.003-14.98 9.003-23.7 0-15.756-10.108-29.494-25.156-34.183z" fill="#fbcb99"/><path d="M165.003 153.245a14.38 14.38 0 0 0-12.791-2.143 35.66 35.66 0 0 0-25.161 34.187c0 15.762 10.114 29.5 25.16 34.19a14.25 14.25 0 0 0 4.277.652 14.37 14.37 0 0 0 8.514-2.796c3.684-2.706 5.855-7.003 5.855-11.57v-40.948c0-4.564-2.17-8.864-5.855-11.572z" fill="#edba89"/><path d="M296.246 277.14c-2.825-2.703-6.615-4.12-10.55-3.976l-.488.023a14.63 14.63 0 0 0-2.61.331 77.48 77.48 0 0 1-16.795 1.862h-17.566a77.58 77.58 0 0 1-17.297-1.973 14.34 14.34 0 0 0-12.162 2.764c-3.423 2.726-5.417 6.867-5.417 11.238l-.008 41.935a14.39 14.39 0 0 0 4.319 11.088l28.87 28.12c2.684 2.614 6.283 4.07 10.022 4.07h.233a14.36 14.36 0 0 0 10.118-4.402l29.742-30.872c2.58-2.677 4.02-6.25 4.02-9.965V287.52c-.001-3.92-1.6-7.67-4.43-10.38z" fill="#fbcb99"/><path d="M259.476 364.235l-28.872-28.117a14.38 14.38 0 0 1-4.321-11.087l.013-.142v-41.794c0-3.676 1.423-7.176 3.906-9.818-4.04-.706-8.2.327-11.422 2.892-3.423 2.726-5.417 6.867-5.417 11.238l-.008 41.935a14.39 14.39 0 0 0 4.319 11.088l28.87 28.12c2.684 2.614 6.283 4.07 10.022 4.07h.233c3.824-.063 7.468-1.645 10.117-4.402l.128-.134c-2.835-.49-5.48-1.814-7.567-3.85z" fill="#edba89"/><path d="M341.015 139.38c-1.738-.648-3.378-1.402-4.98-2.205-24.143-11.265-34.164-25.917-38.198-34.658-.24-.33-.48-.694-.725-1.15-2.885-5.305-7.382-1.947-7.382-1.947l-.02-.01c-22.546 17.293-47.173 27.406-67.647 33.3-7.97 2.355-15.605 4.058-22.5 5.296-13.723 2.52-22.546 2.85-22.546 2.85-7.517.54-13.34 6.8-13.34 14.334v58.625c0 46.63 37.94 84.566 84.567 84.566h17.566c46.626 0 84.563-37.934 84.563-84.566v-60.96a14.37 14.37 0 0 0-9.35-13.462z" fill="#fbcb99"/><path d="M180.912 213.803v-58.625c0-7.535 5.82-13.792 13.336-14.334 0 0 8.82-.33 22.546-2.85 6.908-1.238 14.543-2.94 22.515-5.296 18.116-5.21 39.49-13.74 59.802-27.62a48.92 48.92 0 0 1-1.274-2.562c-.24-.33-.48-.694-.725-1.15-2.885-5.305-7.382-1.947-7.382-1.947l-.02-.01c-22.546 17.293-47.173 27.406-67.647 33.3-7.97 2.355-15.605 4.058-22.5 5.296-13.723 2.52-22.546 2.85-22.546 2.85-7.517.54-13.34 6.8-13.34 14.334v58.625c0 46.63 37.94 84.566 84.567 84.566h17.236c-46.623.001-84.56-37.934-84.56-84.565z" fill="#edba89"/><path d="M92.384 512h140.05l-50.186-179.167-51.83 21.595c-21.022 7.38-56.597 34.147-56.597 87.653v51.377C74.1 499 76.444 512 92.384 512zm345.796-17.92v-51.997c0-54.164-37-81.002-56.674-87.683l-49.812-20.756L281.733 512h137.922c15.37-.001 18.1-12.092 18.525-17.92z" fill="#324a5e"/><path d="M182.247 332.834l-51.83 21.595c-21.022 7.38-56.597 34.147-56.597 87.653v51.377C74.1 499 76.445 512 92.384 512h2.323v-69.917c0-53.507 35.574-80.275 56.597-87.653l.07-.026 33.057-13.776-2.183-7.793zM379.854 512v-71.43a8.12 8.12 0 1 0-16.241.001V512h16.242zm-229.43 0v-71.43a8.121 8.121 0 1 0-16.242 0V512h16.242z" fill="#283d4c"/><path d="M265.26 220.686a5.42 5.42 0 0 1 5.414 5.414 5.42 5.42 0 0 1-5.414 5.414h-13.834a5.42 5.42 0 0 1-5.414-5.414v-26.4a5.42 5.42 0 0 1 5.414-5.414 5.42 5.42 0 0 1 5.414 5.414v20.976h8.42z" fill="#edba89"/></svg>