<svg xmlns="http://www.w3.org/2000/svg" viewBox="0 0 511.999 511.999"><path d="M511.88 475.685l-40.224-221.6c-.4-2.212-1.773-4.128-3.74-5.22l-101.242-56.3a7.48 7.48 0 0 0-4.234-.91l18.42 237.608-.617.276 121.164 54.357a7.53 7.53 0 0 0 3.077.659 7.51 7.51 0 0 0 4.632-1.596 7.5 7.5 0 0 0 2.764-7.251zM256 246.375l-103.545-53.93c-1.24-.647-2.617-.9-3.972-.82.36-.022.72-.02 1.078.008L131.14 429.24l121.78 54.634a7.53 7.53 0 0 0 3.077.659v-238.16z" fill="#44c868"/><path d="M149.56 191.633a7.58 7.58 0 0 0-4.234.9l-101.243 56.3a7.51 7.51 0 0 0-3.74 5.22L.12 475.685c-.498 2.742.566 5.534 2.763 7.252 1.347 1.053 2.982 1.596 4.632 1.596a7.51 7.51 0 0 0 3.077-.659l120.504-54.06 18.463-238.18zm212.88-.005c-.996.077-1.98.342-2.894.818L256 246.376v238.158a7.51 7.51 0 0 0 3.078-.659l121.78-54.634-18.42-237.613z" fill="#4ce166"/><path d="M28.154 321.233l-8.17 45.02 120.994-63.906 3.275-42.25z" fill="#ffdb56"/><path d="M142.066 288.294l-1.09 14.052-120.994 63.906L.12 475.685c-.498 2.742.566 5.534 2.763 7.252 1.347 1.053 2.982 1.596 4.632 1.596a7.51 7.51 0 0 0 3.077-.659l120.504-54.06 10.97-141.52z" fill="#a8eefc"/><path d="M256.03 276.08l-111.778-15.983-3.275 42.25L256 477.025v-63.518L187.363 305.43l68.667 8.213zm203.916-31.66l-48.635-27.05-46.042 10.758 2.85 36.77z" fill="#ffbb24"/><path d="M372.202 317.576l-6.933-89.448-109.24 47.952v37.562l71.356-31.03z" fill="#ffdb56"/><path d="M511.88 475.685l-10.103-55.666-133.657-155.12 4.084 52.678 137.07 165.22a7.5 7.5 0 0 0 2.606-7.112z" fill="#ffbb24"/><path d="M256.48 27.465c-57.963 0-105.12 47.118-105.12 105.034 0 35.826 17.01 74.3 50.556 114.322 24.64 29.403 48.943 48.314 49.966 49.105 1.354 1.047 2.976 1.57 4.6 1.57s3.245-.523 4.6-1.57c1.022-.79 25.327-19.702 49.966-49.105 33.547-40.032 50.556-78.495 50.556-114.322-.002-57.916-47.16-105.034-105.122-105.034zm38.93 105.033c0 21.482-17.43 38.898-38.93 38.898s-38.93-17.415-38.93-38.898S234.98 93.6 256.48 93.6s38.93 17.416 38.93 38.898z" fill="#ff4a4a"/><path d="M256.48 27.465a105.71 105.71 0 0 0-13.559.872c51.583 6.667 91.562 50.836 91.562 104.162 0 35.826-17.01 74.3-50.556 114.322-15.845 18.908-31.54 33.467-41.005 41.67 5.254 4.552 8.596 7.154 8.96 7.436 1.354 1.047 2.976 1.57 4.6 1.57s3.245-.523 4.6-1.57c1.022-.79 25.327-19.702 49.966-49.105 33.547-40.032 50.556-78.495 50.556-114.322-.002-57.916-47.16-105.034-105.122-105.034z" fill="#e7343f"/><path d="M259.078 483.874l45.285-20.316L256 413.507v71.026a7.5 7.5 0 0 0 3.078-.659z" fill="#ffdb56"/><path d="M471.654 254.074c-.4-2.212-1.773-4.128-3.74-5.22l-7.97-4.433-91.827 20.477 133.656 155.12-30.12-165.944zM256 484.533v-7.508l-115.022-174.68-9.837 126.895 121.78 54.634a7.53 7.53 0 0 0 3.078.658z" fill="#1ea4e9"/></svg>